<?xml version="1.0" encoding="UTF-8" standalone="no"?><svg xmlns="http://www.w3.org/2000/svg" xmlns:xlink="http://www.w3.org/1999/xlink" fill="#000000" height="877.8" id="Text" preserveAspectRatio="xMidYMid meet" version="1.1" viewBox="125.0 60.8 750.3 877.8" width="750.3" x="0" xml:space="preserve" y="0" zoomAndPan="magnify"><g id="change1_1"><path d="M126.37,938.59c-1.34-1.96-1.1-3.69-1.1-5.37c-0.01-287.91-0.01-575.82,0-863.73c0-7.86,0.02-7.86,7.86-7.86 c245.55,0,491.09,0,736.64,0.03c1.64,0,4.01-0.84,4.75,0.55c0.85,1.58-0.95,3.33-1.98,4.76c-6.32,8.8-11.35,18.41-17.2,27.5 c-5.69,8.85-11.03,17.98-17.12,26.55c-4.26,5.99-8.52,12.01-13.56,17.51c-6.39,6.97-11.78,14.84-17.69,22.26 c-7.97,10.01-17.56,18.4-27.16,26.75c-5.09,4.43-10.13,9.02-15.75,12.7c-8.45,5.54-16.83,11.22-25.58,16.32 c-10.35,6.03-21.07,11.41-32.01,16.08c-10.84,4.63-21.68,9.31-32.78,13.42c-15.61,5.78-30.61,13.17-46.15,19.15 c-9.09,3.5-18.12,7.28-27.37,10.29c-9.71,3.17-18.67,8.05-28.29,11.21c-9.2,3.02-17.64,7.78-26.68,11 c-12.52,4.46-24.52,10.12-36.66,15.37c-12.14,5.25-24.13,10.98-35.9,17.16c-7.97,4.18-15.61,8.85-23.27,13.45 c-8.43,5.07-16.47,10.82-24.22,16.99c-11.71,9.32-22.97,19.14-33.53,29.7c-7.84,7.84-15.17,16.2-22.31,24.7 c-9.63,11.47-17.76,24.02-25.16,36.93c-7.32,12.77-13.46,26.21-18.37,40.19c-4.69,13.37-9.02,26.88-13.37,40.35 c-2.64,8.2-4.94,16.65-6.92,25.11c-0.76,3.27-2.15,6.4-2.95,9.67c-3.77,15.48-6.33,31.23-10.67,46.59 c-1.44,5.09-1.9,10.46-3.23,15.59c-2.08,8.03-4.18,16.09-6.9,23.92c-3.16,9.1-4.85,18.59-8.12,27.65 c-5.73,15.87-9.91,32.24-15.72,48.12c-3.61,9.86-7.98,19.44-11.19,29.41c-4,12.45-9.79,24.11-15.14,35.93 c-5.09,11.23-10.65,22.28-16.58,33.15c-8.39,15.38-18.66,29.43-28.97,43.47c-4.83,6.57-10.37,12.62-15.18,19.21 C157.91,908.06,142.03,922.95,126.37,938.59z" fill="#d9b678"/></g></svg>