<?xml version="1.0" encoding="UTF-8" standalone="no"?><svg xmlns="http://www.w3.org/2000/svg" xmlns:xlink="http://www.w3.org/1999/xlink" fill="#643c1c" height="40" preserveAspectRatio="xMidYMid meet" version="1" viewBox="4.0 4.0 40.0 40.0" width="40" zoomAndPan="magnify"><g><path d="M0,0H48V48H0Z" fill="none"/><g id="change1_1"><path d="M16,42a2,2,0,0,1-1.827-2.813l8-18a2,2,0,0,1,3.656,1.624l-8,18A2,2,0,0,1,16,42Z"/></g><g id="change1_2"><path d="M26.5,34a7.417,7.417,0,0,1-6.99-5.346,2,2,0,1,1,3.78-1.308A3.492,3.492,0,0,0,26.5,30c3.238,0,5.5-2.468,5.5-6a8.011,8.011,0,0,0-7.991-8.012H24a8,8,0,0,0-7.519,10.73,2,2,0,0,1-3.76,1.365A12,12,0,0,1,24,11.988h.015A12.014,12.014,0,0,1,36,24C36,29.794,32.005,34,26.5,34Z"/></g><g id="change1_3"><path d="M24,44A20,20,0,1,1,44,24,20.023,20.023,0,0,1,24,44ZM24,8A16,16,0,1,0,40,24,16.019,16.019,0,0,0,24,8Z"/></g></g></svg>