<?xml version="1.0" encoding="UTF-8" standalone="no"?><svg xmlns="http://www.w3.org/2000/svg" xmlns:xlink="http://www.w3.org/1999/xlink" fill="#000000" height="638.1" id="Text" preserveAspectRatio="xMidYMid meet" version="1.1" viewBox="69.3 181.5 863.1 638.1" width="863.1" x="0" xml:space="preserve" y="0" zoomAndPan="magnify"><g id="change1_1"><path d="M662.28,320.13c-10.26-2.14-20.58-1.55-30.91-0.76c-2.04-0.77-3.95-0.88-5.47,1.05 c-47.67,4.18-80.52,27.88-97.5,73.18c-10.52,28.07-19.95,56.66-34.48,83.02c-12.54,22.74-28.6,42.12-54.77,50.02 c-13.72,4.14-27.77,3.75-41.98,2.74c-26.59-1.89-51.64-11.03-77.64-15.65c-17.16-3.05-26.09,1.57-31.89,18.27 c-9.38,27.05-13.4,55.33-18.84,83.29c-6.7,34.45-12.12,69.29-33.03,99.1c-13.43,19.14-29.72,35.41-48.77,48.65 c-33.81,23.5-70.04,42.34-109.59,54.5c-7.03,2.16-8.03,0.37-8.02-6.26c0.15-206.83,0.17-413.66-0.08-620.48 c-0.01-8.17,2.82-9.25,9.92-9.24c184.01,0.17,368.02,0.14,552.02,0.14c96.48,0,192.96,0,289.44,0c11.69,0,11.38-0.09,7.77,10.57 c-14.76,43.56-41.13,78.34-78.82,104.53c-21.47,14.92-45.56,23.57-71.3,26.94c-29.82,3.9-59.69,3.12-89.46-1.42 c-7.07-1.08-14.26-1.3-21.4-1.92C665.86,318.39,664.12,318.32,662.28,320.13z" fill="#d9b678"/></g></svg>