<?xml version="1.0" encoding="UTF-8" standalone="no"?><svg xmlns="http://www.w3.org/2000/svg" xmlns:xlink="http://www.w3.org/1999/xlink" clip-rule="evenodd" fill="#643c1c" fill-rule="evenodd" height="134" preserveAspectRatio="xMidYMid meet" stroke-linejoin="round" stroke-miterlimit="2" version="1" viewBox="-0.1 -0.6 134.0 134.0" width="134" zoomAndPan="magnify"><g id="change1_1"><path d="M132.848,11.136c1.083,-3.033 0.322,-6.418 -1.955,-8.695c-2.278,-2.277 -5.663,-3.039 -8.696,-1.956l-116.666,41.667c-3.41,1.218 -5.644,4.499 -5.527,8.118c0.118,3.619 2.558,6.748 6.04,7.743l53.882,15.395c-0,-0 15.395,53.881 15.395,53.881c0.994,3.482 4.124,5.923 7.743,6.04c3.619,0.117 6.899,-2.116 8.117,-5.526l41.667,-116.667Zm-21.613,10.962l-27.02,75.655c0,0 -9.536,-33.376 -9.536,-33.376c-0.791,-2.768 -2.955,-4.932 -5.723,-5.723l-33.376,-9.536l75.655,-27.02Z" fill="inherit"/></g></svg>