<?xml version="1.0" encoding="UTF-8" standalone="no"?><svg xmlns="http://www.w3.org/2000/svg" xmlns:xlink="http://www.w3.org/1999/xlink" clip-rule="evenodd" fill="#643c1c" fill-rule="evenodd" height="133.3" preserveAspectRatio="xMidYMid meet" stroke-linejoin="round" stroke-miterlimit="2" version="1" viewBox="-0.0 0.0 133.3 133.3" width="133.3" zoomAndPan="magnify"><g id="change1_1"><path d="M133.333,33.499c0,-18.48 -14.98,-33.461 -33.46,-33.461c-19.63,0 -46.782,0 -66.412,0c-18.48,0 -33.461,14.981 -33.461,33.461c0,19.63 0,46.782 0,66.412c0,18.48 14.981,33.461 33.461,33.461c19.63,-0 46.782,-0 66.412,-0c18.48,-0 33.46,-14.981 33.46,-33.461l0,-66.412Zm-116.666,12.135l-0,54.277c-0,9.275 7.519,16.794 16.794,16.794c-0,-0 66.412,-0 66.412,-0c9.275,-0 16.794,-7.519 16.794,-16.794l-0,-54.277l-44.791,35.871c-3.045,2.438 -7.374,2.438 -10.418,-0l-44.791,-35.871Zm98.126,-19.851l-48.126,38.541l-48.126,-38.541c2.793,-5.393 8.426,-9.078 14.919,-9.078c0.001,-0 66.413,-0 66.413,-0c6.493,-0 12.126,3.685 14.92,9.078Z" fill="inherit"/></g></svg>