<?xml version="1.0" encoding="UTF-8" standalone="no"?><svg xmlns="http://www.w3.org/2000/svg" xmlns:xlink="http://www.w3.org/1999/xlink" fill="#643c1c" height="106.8" preserveAspectRatio="xMidYMid meet" version="1" viewBox="-0.2 -0.0 150.5 106.8" width="150.5" zoomAndPan="magnify"><g data-name="Layer 2"><g data-name="Layer 1"><g id="change1_1"><path d="M95.107,106.119c-14.765.145-30.695.637-46.609.313a92.809,92.809,0,0,1-22.882-3.1A41.109,41.109,0,0,1,9.591,94.677C5.772,91.234,3.715,85.8,2.559,80.3.225,69.2.836,57.943.212,46.758c-.251-4.5-.45-9.166.449-13.525,1.371-6.651,2.617-13.6,6.953-19.13A31.047,31.047,0,0,1,24.067,3.128C30.294,1.49,36.919,1.14,43.4.749,52.2.219,61.026-.046,69.838.007c9,.053,18,.653,27,.963,5.246.181,10.5.194,15.744.4,7.787.311,15.443,1.125,22.484,5.02,4.6,2.547,6.7,7.012,9.154,11.164,3.094,5.246,3.727,11.31,4.494,17.2,1.5,11.529.943,23.026-.016,34.64a51.69,51.69,0,0,1-7.6,23.329c-2.263,3.724-5.788,5.741-9.41,6.956a205.189,205.189,0,0,1-23.548,6.305C104.339,106.773,100.233,106.119,95.107,106.119ZM59.247,57.8h-.6c.262,3.97.383,7.957.829,11.907.4,3.557,2.866,5.046,6.19,3.9a18.984,18.984,0,0,0,3.3-1.859c7.126-4.216,14.259-8.419,21.364-12.669a36.2,36.2,0,0,0,5.423-3.614c2.989-2.626,2.4-5.455-1.209-7.2q-14.356-6.94-28.669-13.967c-4.081-2.009-6.454-.931-6.58,3.484C59.107,44.457,59.247,51.132,59.247,57.8Z"/></g><g id="change2_1"><path d="M59.247,57.8c0-6.671-.14-13.346.049-20.012.126-4.415,2.5-5.493,6.58-3.484Q80.182,41.35,94.545,48.274c3.606,1.743,4.2,4.572,1.209,7.2a36.2,36.2,0,0,1-5.423,3.614c-7.105,4.25-14.238,8.453-21.364,12.669a18.984,18.984,0,0,1-3.3,1.859c-3.324,1.142-5.788-.347-6.19-3.9-.446-3.95-.567-7.937-.829-11.907Z" fill="#ffffff"/></g></g></g></svg>