<?xml version="1.0" encoding="UTF-8" standalone="no"?><svg xmlns="http://www.w3.org/2000/svg" xmlns:xlink="http://www.w3.org/1999/xlink" fill="#643c1c" height="339.2" preserveAspectRatio="xMidYMid meet" version="1" viewBox="86.4 86.4 339.6 339.2" width="339.6" zoomAndPan="magnify"><g id="change1_1"><path d="M374.88,135.06c-31.94-31.4-74.11-48.65-118.87-48.65c-0.41,0-0.83,0-1.25,0c-92.83,0.66-168.35,77.42-168.35,171.1v158.06 c0,4.04,2.44,7.69,6.17,9.24c1.24,0.51,2.54,0.76,3.83,0.76c2.6,0,5.16-1.02,7.07-2.93l28.3-28.3c6.41-6.41,16.43-7.1,23.84-1.66 c29.26,21.51,63.96,32.88,100.37,32.88c0.03,0,0.06,0,0.09,0c45.44-0.02,88.18-17.96,120.35-50.5 c32.18-32.55,49.63-75.52,49.13-120.98C425.08,208.99,407.07,166.72,374.88,135.06z M362.22,361.02 c-28.38,28.71-66.08,44.54-106.14,44.56c-0.03,0-0.05,0-0.08,0c-32.12,0-62.73-10.03-88.53-29c-6.91-5.08-14.94-7.58-22.9-7.58 c-9.8,0-19.51,3.79-26.93,11.21l-11.23,11.23V257.52c0-82.73,66.61-150.51,148.49-151.1c0.37,0,0.72,0,1.08,0 c81.68,0,148.69,66.13,149.59,147.91C406.01,294.4,390.62,332.3,362.22,361.02z" fill="inherit"/><path d="M315.56,285.54c-5.29-5.29-13.86-5.29-19.15,0l-8.07,8.07c-0.04,0.04-4.82,4.09-12.25,5.37 c-15.9,2.73-32.05-9.51-42.8-20.26c-32.06-32.06-18.07-51.47-14.65-55.3l7.83-7.83c5.29-5.29,5.29-13.86,0-19.15l-12.77-12.77 c-5.29-5.29-13.86-5.29-19.15,0l-8.07,8.07c-2.35,2.35-14.27,15.16-17.94,36.52c-3.31,19.28-0.31,49.23,32.83,82.37 c26.76,26.76,51.44,33.87,70.1,33.87c4.45,0,8.55-0.4,12.27-1.04c21.36-3.67,34.17-15.59,36.52-17.94l8.07-8.07 c5.29-5.29,5.29-13.86,0-19.15L315.56,285.54z M218.59,223.46c-0.13,0.14-0.2,0.2-0.2,0.2L218.59,223.46z" fill="inherit"/></g></svg>