<?xml version="1.0" encoding="UTF-8" standalone="no"?><svg xmlns="http://www.w3.org/2000/svg" xmlns:xlink="http://www.w3.org/1999/xlink" fill="#000000" height="150" preserveAspectRatio="xMidYMid meet" version="1" viewBox="0.0 0.0 150.0 150.0" width="150" zoomAndPan="magnify"><g><g id="change1_1"><path d="M126.1,0C139.3,0,150,10.7,150,23.9v102.2c0,13.2-10.7,23.9-23.9,23.9H23.9C10.7,150,0,139.3,0,126.1V23.9 C0,10.7,10.7,0,23.9,0H126.1z" fill="#643c1c"/></g><g><g><g><g id="change2_1"><path d="M75.6,126.6c-0.3,0-0.6,0-0.8,0h0c-0.2,0-0.4,0-0.5,0c-6.5,0-10.7-3-14.7-5.8c-2.8-2-5.4-3.8-8.5-4.3 c-1.5-0.3-3-0.4-4.5-0.4c-2.6,0-4.7,0.4-6.2,0.7c-0.9,0.2-1.7,0.3-2.3,0.3c-0.6,0-1.3-0.1-1.6-1.1c-0.3-0.9-0.4-1.7-0.6-2.5 c-0.5-2.1-0.8-3.4-1.7-3.5c-10.3-1.6-13.3-3.8-13.9-5.3c-0.1-0.2-0.1-0.4-0.2-0.7c0-0.6,0.4-1.1,1-1.2 c15.9-2.6,23-18.8,23.3-19.5c0,0,0,0,0-0.1c1-2,1.2-3.7,0.6-5.1c-1.1-2.6-4.6-3.7-7-4.4c-0.6-0.2-1.1-0.4-1.6-0.5 c-4.7-1.9-5.1-3.8-4.9-4.7c0.3-1.7,2.5-2.8,4.3-2.8c0.5,0,0.9,0.1,1.3,0.3c2.1,1,4,1.5,5.7,1.5c2.3,0,3.3-1,3.4-1.1 c-0.1-1.1-0.1-2.2-0.2-3.4c-0.5-7.5-1.1-16.8,1.3-22.2c7.1-16,22.2-17.2,26.7-17.2c0.1,0,2,0,2,0l0.3,0 c4.5,0,19.6,1.2,26.7,17.2c2.4,5.3,1.8,14.7,1.3,22.2l0,0.3c-0.1,1-0.1,2.1-0.2,3c0.1,0.1,1,1,3.1,1.1h0 c1.6-0.1,3.4-0.6,5.3-1.5c0.6-0.3,1.2-0.3,1.7-0.3c0.7,0,1.3,0.1,1.9,0.4l0,0c1.6,0.6,2.6,1.7,2.7,2.8c0,1.1-0.8,2.8-4.9,4.4 c-0.4,0.2-1,0.3-1.5,0.5c-2.4,0.7-5.9,1.9-7,4.4c-0.6,1.4-0.4,3.1,0.6,5.1c0,0,0,0,0,0.1c0.3,0.7,7.4,16.9,23.3,19.5 c0.6,0.1,1,0.6,1,1.2c0,0.2-0.1,0.4-0.2,0.7c-0.7,1.5-3.6,3.7-13.9,5.3c-0.8,0.1-1.2,1.2-1.7,3.5c-0.2,0.8-0.4,1.7-0.6,2.5 c-0.2,0.8-0.7,1.1-1.5,1.1h-0.1c-0.5,0-1.3-0.1-2.3-0.3c-1.7-0.3-3.7-0.7-6.2-0.7c-1.5,0-3,0.1-4.5,0.4 c-3.1,0.5-5.7,2.4-8.5,4.3C86.2,123.6,82.1,126.6,75.6,126.6z" fill="#f2dda6"/></g><g id="change3_1"><path d="M75.9,24.6c4.2,0,18.8,1.1,25.6,16.5c2.3,5.1,1.7,14.2,1.2,21.6c-0.1,1.2-0.1,2.3-0.2,3.4l0,0.5l0.3,0.3 c0.1,0.1,1.3,1.4,3.9,1.5l0,0l0,0c1.7-0.1,3.7-0.6,5.8-1.6c0.3-0.1,0.7-0.2,1.2-0.2c0.5,0,1,0.1,1.5,0.3l0.1,0 c1.1,0.4,1.9,1.1,1.9,1.8c0,0.4-0.3,1.7-4.2,3.3c-0.4,0.2-0.9,0.3-1.5,0.5c-2.6,0.8-6.4,2-7.7,5.1c-0.7,1.7-0.5,3.8,0.6,6 c0.5,1.1,7.8,17.5,24.2,20.2c0,0.1,0,0.2-0.1,0.3c-0.3,0.7-2,2.9-13,4.6c-1.7,0.3-2.1,2.2-2.6,4.4c-0.2,0.8-0.4,1.6-0.6,2.5 c-0.1,0.3-0.1,0.3-0.4,0.3c0,0-0.1,0-0.1,0l0,0c-0.5,0-1.2-0.1-2.1-0.3c-1.6-0.3-3.7-0.7-6.4-0.7c-1.5,0-3.1,0.1-4.7,0.4 c-3.4,0.6-6.1,2.5-9,4.5c-3.9,2.8-7.9,5.6-14.1,5.6c-0.3,0-0.5,0-0.8,0l-0.1,0l-0.1,0c-0.2,0-0.3,0-0.5,0 c-6.1,0-10.2-2.8-14.1-5.6c-2.9-2-5.6-4-9-4.5c-1.6-0.3-3.1-0.4-4.7-0.4c-2.7,0-4.9,0.4-6.4,0.7c-0.9,0.2-1.6,0.3-2.1,0.3 c-0.4,0-0.4,0-0.5-0.3c-0.2-0.8-0.4-1.7-0.6-2.5c-0.5-2.2-0.9-4.2-2.6-4.4c-11-1.7-12.8-4-13-4.6c0-0.1-0.1-0.2-0.1-0.3 c16.4-2.7,23.7-19.1,24.2-20.2c1.1-2.3,1.3-4.3,0.6-6c-1.3-3.1-5.2-4.3-7.7-5.1c-0.6-0.2-1.1-0.3-1.5-0.5 c-3.3-1.3-4.3-2.6-4.2-3.4c0.2-0.9,1.8-1.9,3.2-1.9c0.3,0,0.6,0.1,0.8,0.1c2.3,1.1,4.3,1.6,6.1,1.6c2.9,0,4.1-1.3,4.3-1.5 l0.3-0.3l0-0.5c-0.1-1.1-0.1-2.2-0.2-3.4c-0.5-7.4-1-16.5,1.2-21.6C55,25.8,69.4,24.6,73.7,24.6c0.1,0,2,0,2,0 C75.8,24.6,75.9,24.6,75.9,24.6 M75.9,22.3L75.9,22.3c-0.1,0-0.2,0-0.3,0l0,0c0,0-1.8,0-1.9,0c-4.6,0-20.3,1.3-27.7,17.9 c-2.5,5.6-1.9,15.1-1.4,22.7c0.1,0.9,0.1,1.8,0.2,2.7c-0.4,0.2-1.1,0.5-2.2,0.5c-1.5,0-3.2-0.5-5.2-1.4 c-0.5-0.2-1.1-0.4-1.8-0.4c-2.3,0-5,1.5-5.5,3.8c-0.3,1.6,0.4,4,5.6,6c0.5,0.2,1,0.4,1.6,0.6c2.1,0.7,5.4,1.7,6.3,3.8 c0.5,1.1,0.3,2.5-0.5,4.1c0,0,0,0.1-0.1,0.1c-0.3,0.7-7.2,16.3-22.4,18.8c-1.2,0.2-2,1.2-1.9,2.4c0,0.4,0.1,0.7,0.2,1 c1.1,2.7,6,4.6,14.8,6c0.3,0.4,0.6,1.8,0.8,2.7c0.2,0.8,0.4,1.7,0.6,2.6c0.3,0.9,1,2,2.7,2c0.7,0,1.6-0.2,2.5-0.4 c1.5-0.3,3.5-0.7,6-0.7c1.4,0,2.8,0.1,4.3,0.4c2.8,0.5,5.2,2.2,8,4.1c4,2.8,8.5,6,15.4,6c0.2,0,0.4,0,0.6,0c0.2,0,0.5,0,0.8,0 c6.9,0,11.4-3.2,15.4-6c2.8-2,5.2-3.7,8-4.2c1.5-0.2,2.9-0.4,4.3-0.4c2.4,0,4.3,0.3,6,0.6c1.1,0.2,1.9,0.3,2.5,0.3l0.1,0h0.1 c1.3,0,2.2-0.7,2.6-1.9c0.3-0.9,0.5-1.7,0.6-2.6c0.2-0.9,0.5-2.3,0.8-2.6c8.8-1.4,13.6-3.3,14.8-6c0.1-0.3,0.2-0.7,0.3-1.1 c0.1-1.2-0.8-2.2-1.9-2.4c-15.3-2.5-22.1-18.2-22.4-18.8c0,0,0-0.1-0.1-0.1c-0.8-1.7-1-3-0.5-4.1c0.9-2.1,4.1-3.1,6.3-3.8 c0.6-0.2,1.2-0.4,1.6-0.6c3.8-1.5,5.7-3.3,5.7-5.5c0-1.7-1.3-3.2-3.4-3.9l0,0c-0.7-0.3-1.5-0.4-2.3-0.4c-0.6,0-1.4,0.1-2.1,0.4 c-1.8,0.8-3.4,1.3-4.8,1.4c-0.9,0-1.5-0.3-1.9-0.5c0-0.8,0.1-1.6,0.1-2.4l0-0.3c0.5-7.6,1.1-17.1-1.4-22.7 C96.3,23.6,80.6,22.3,75.9,22.3L75.9,22.3z" fill="#030303"/></g></g></g></g></g></svg>